<svg xmlns="http://www.w3.org/2000/svg" version="1.1" xmlns:xlink="http://www.w3.org/1999/xlink" xmlns:svgjs="http://svgjs.dev/svgjs" width="2000" height="1500" viewBox="0 0 2000 1500"><rect width="2000" height="1500" fill="#0a1627"></rect><g transform="matrix(0.75,0,0,0.75,249.09154779283585,520.6839510225756)"><svg viewBox="0 0 396 121" data-background-color="#0a1627" preserveAspectRatio="xMidYMid meet" height="611" width="2000" xmlns="http://www.w3.org/2000/svg" xmlns:xlink="http://www.w3.org/1999/xlink"><g id="tight-bounds" transform="matrix(1,0,0,1,0.24008861730862918,0.05044610205860067)"><svg viewBox="0 0 395.52 120.89910779588277" height="120.89910779588277" width="395.52"><g><svg viewBox="0 0 395.52 120.89910779588277" height="120.89910779588277" width="395.52"><g><svg viewBox="0 0 395.52 120.89910779588277" height="120.89910779588277" width="395.52"><g id="textblocktransform"><svg viewBox="0 0 395.52 120.89910779588277" height="120.89910779588277" width="395.52" id="textblock"><g><svg viewBox="0 0 395.52 120.89910779588277" height="120.89910779588277" width="395.52"><path d="M394.594 25.931C392.735 13.381 387.435 9.893 387.435 9.893 371.165-3.033 350.86-0.247 332.619 1.61 300.414 1.685 268.339 4.446 236.208 5.927 168.767 6.153 100.749 2.438 33.643 11.599 27.339 14.41-6.54 12.151 1.121 27.537 3.129 33.937 10.456 41.04 10.232 46.913 11.236 47.942 12.631 45.583 13.226 47.064 15.309 51.054 18.711 49.172 21.501 51.531 17.614 57.831 20.403 63.076 23.062 68.573 18.377 70.004 12.371 69.326 9.675 74.07 9.396 77.508 7.89 76.856 6.235 76.705 5.026 76.605 2.59 76.981 2.999 78.06 4.394 81.75-1.594 83.883 2.162 87.497-0.422 91.413 3.948 94.801 3.353 99.043 3.278 99.896 3.687 100.624 4.338 100.825 7.22 101.904 3.018 104.012 3.464 106.296 33.029 121.907 65.104 111.115 95.394 118.293 103.259 113.274 97.346 120.075 100.489 119.021 102.943 117.791 104.728 122.886 107.499 120 107.927 119.172 107.276 117.214 108.8 117.591 109.6 117.791 110.307 117.741 110.418 116.587 110.586 114.855 109.117 115.934 108.726 115.03 112.947 110.463 111.906 121.33 115.866 120.878 115.68 119.548 114.528 117.641 116.889 117.892 119.232 115.984 119.306 114.403 121.389 118.695 121.463 119.624 121.835 120.276 122.43 120.728 128.938 116.06 135.409 122.384 142.233 120.276 146.417 117.967 150.433 121.531 154.672 120.653 156.16 119.95 157.666 118.695 159.098 120.803 176.632 121.255 195.319 119.373 211.943 120.878 256.364 118.067 303.835 122.033 350.674 118.318 361.719 116.888 373.192 114.855 383.958 113.223 383.958 113.223 392.679 108.756 392.679 88.677S394.538 71.108 394.817 55.12C395.096 39.132 396.398 38.48 394.538 25.931Z" opacity="1" fill="#fe0039" data-fill-palette-color="tertiary"></path><g transform="matrix(1,0,0,1,55.76832,26.230666666666668)"><svg width="283.98335999999995" viewBox="2.640000104904175 -38.400001525878906 161.8000030517578 38.989715576171875" height="68.43777446254944" data-palette-color="#0a1627"><path d="M14.4-2.34L14.4-2.34Q16.21-2.34 17.69-2.7 19.17-3.05 20.24-3.81L20.24-3.81Q22.53-5.4 22.53-8.45L22.53-8.45Q22.53-11.04 20.85-12.7L20.85-12.7Q19.07-14.4 15.08-16.15 11.08-17.9 9-19.27 6.91-20.65 5.71-22.07L5.71-22.07Q3.54-24.56 3.54-28.1L3.54-28.1Q3.54-32.2 7.08-34.86L7.08-34.86Q10.38-37.38 15.06-37.38L15.06-37.38Q18.75-37.38 22.44-36.04L22.44-36.04Q23.97-35.42 25.22-34.69L25.22-34.69 24.37-28.17 22.31-28.17Q22.31-31.54 20.48-33.07 18.65-34.59 15.19-34.59L15.19-34.59Q10.4-34.59 8.64-31.47L8.64-31.47Q8.08-30.44 8.08-29.17 8.08-27.91 8.45-26.89 8.81-25.88 9.86-24.9L9.86-24.9Q11.91-22.92 17.58-20.56L17.58-20.56Q25.49-17.19 26.81-12.6L26.81-12.6Q27.2-11.16 27.2-9.53 27.2-7.91 26.65-6.46 26.1-5 25.15-3.87 24.19-2.73 22.94-1.9 21.68-1.07 20.26-0.54L20.26-0.54Q13.99 1.9 7.08-0.93L7.08-0.93Q4.57-1.98 2.64-3.49L2.64-3.49 3.66-10.5 5.74-10.5Q5.74-5.59 8.84-3.66L8.84-3.66Q10.96-2.34 14.4-2.34ZM55.12 0L55.12-2.08 58.49-2.64 54.64-12.13 39.99-12.13 36.15-2.64 39.6-2.08 39.6 0 29.12 0 29.12-2.08 32.98-2.64 45.8-34.33 44.77-36.74 48.73-38.4 63.33-2.64 67.26-2.08 67.26 0 55.12 0ZM47.34-30.76L41.14-15.09 53.56-15.09 47.34-30.76ZM86.84-15.09L86.1-17.65 77.12-17.65 77.12-2.93 90.72-2.93 92.48-7.25 94.33-7.25 93.53 0 68.82 0 68.82-2.08 72.53-2.64 72.53-34.18 68.82-34.74 68.82-36.82 92.45-36.82 93.01-29.57 90.86-29.57 89.55-33.86 77.12-33.86 77.12-20.58 86.1-20.58 86.84-23.17 88.57-23.17 88.57-15.09 86.84-15.09ZM116.03-15.09L115.3-17.65 106.32-17.65 106.32-2.93 119.91-2.93 121.67-7.25 123.53-7.25 122.72 0 98.01 0 98.01-2.08 101.73-2.64 101.73-34.18 98.01-34.74 98.01-36.82 121.65-36.82 122.21-29.57 120.06-29.57 118.74-33.86 106.32-33.86 106.32-20.58 115.3-20.58 116.03-23.17 117.77-23.17 117.77-15.09 116.03-15.09ZM132.19-2.64L132.19-34.18 128.41-34.74 128.41-36.82 144.08-36.82Q153.77-36.82 159.17-32.08L159.17-32.08Q164.44-27.42 164.44-19.31L164.44-19.31Q164.44-13.48 161.73-8.89L161.73-8.89Q159.24-4.66 154.82-2.29L154.82-2.29Q150.53 0 145.57 0L145.57 0 128.41 0 128.41-2.08 132.19-2.64ZM143.96-33.86L136.71-33.86 136.71-2.93 145.52-2.93Q151.65-2.93 155.68-6.79L155.68-6.79Q159.83-10.82 159.83-17.31L159.83-17.31Q159.83-29.74 151.14-32.81L151.14-32.81Q148.13-33.86 143.96-33.86L143.96-33.86Z" opacity="1" transform="matrix(1,0,0,1,0,0)" fill="#0a1627" class="undefined-text-0" data-fill-palette-color="quaternary" id="text-0"></path></svg></g></svg></g></svg></g></svg></g><g></g></svg></g><defs></defs></svg><rect width="395.52" height="120.89910779588277" fill="none" stroke="none" visibility="hidden"></rect></g></svg></g></svg>